<svg xmlns="http://www.w3.org/2000/svg" width="91.298" height="30.526"><path d="M11.541 30.504V10.041H17.9v20.463h11.579V.028H0v30.476z" fill-rule="evenodd" fill="#c50178"/><path d="M30.747 30.504l4.574-10.23h.652v10.23h11.584v-10.23h.652l4.574 10.23h12.711l-7.708-15.2L65.494.028H52.781l-4.267 10.23h-.958V.028H35.972v10.23h-.958L30.747.028H18.034l7.7 15.281-7.7 15.2z" fill="#ff8f00" fill-rule="evenodd"/><path d="M60.668.028l-7.886 3.847v9.86l5.062-2.725v9.86h-5.062v9.635h21.2v-7.256h-4.616V.028z" fill="#001d8c" fill-rule="evenodd"/><path d="M64.23 10.387c0 6.369 4.616 9.151 9.664 9.151a11.738 11.738 0 006.415-1.838c-.726 3.377-2.992 4.36-6.843 4.36a15.319 15.319 0 01-6.711-1.8v8.3a20.006 20.006 0 009.279 1.966c8.082 0 15.263-4.4 15.263-15.263C91.297 5.899 86.766 0 76.589 0c-6.458 0-12.36 2.949-12.36 10.387zm12.741-2.351c1.624 0 2.821.94 3.334 3.334a5.8 5.8 0 01-3.035.9c-1.5 0-2.565-.641-2.565-2.223a2.075 2.075 0 012.266-2.009z" fill="#6cc100" fill-rule="evenodd"/></svg>